{"title":"Cocktail 1988 DVDrip English Klam","uid":8778108,"size":1743797004,"categoryP":"video","categoryS":"movies","magnet":"?xt=urn:btih:d7b5414658766718515c8476b5f2f43656dced6a&amp;dn=Cocktail+1988+DVDrip+English+Klam&amp;tr=udp%3A%2F%2Ftracker.openbittorrent.com%3A80&amp;tr=udp%3A%2F%2Fopen.demonii.com%3A1337&amp;tr=udp%3A%2F%2Ftracker.coppersurfer.tk%3A6969&amp;tr=udp%3A%2F%2Fexodus.desync.com%3A6969","seeders":1,"leechers":0,"uploader":"Klambake","files":-1,"time":1375611435,"description":"With: Tom Cruise, Bryan Brown and Elisabeth Shue\n\nWanneer Brian uit het leger komt wil hij werk zoeken in New York, maar zonder diploma's komt hij niet ver. Dan komt hij te werken in een bar en van zijn baas Douglas leert hij alle kneepjes van het vak en samen worden ze de populairste barmannen van de stad. Brian wil echter graag zelf een cocktailbar beginnen en vertrekt naar Jamaica waar hij de knappe kunstenares Jordan leert kennen. Maar als Brian het aanlegt met een oudere rijke vrouw, verlaat Jordan hem.\n\nA talented New York bartender takes a job at a bar in Jamaica and falls in love. \n &lt;a href=&quot;\nhttp://www.imdb.com/title/tt0094889&quot; rel=&quot;nofollow&quot; target=&quot;_NEW&quot;&gt;\nhttp://www.imdb.com/title/tt0094889&lt;/a&gt;\t\n\n------------------------ Dutch Friends ------------------------\n---------------------------------------------------------------\n- Bezoek ook eens mijn vrienden op: &lt;a href=&quot; http://www.Film-Test.nl&quot; rel=&quot;nofollow&quot; target=&quot;_NEW&quot;&gt; http://www.Film-Test.nl&lt;/a&gt; --\n----- voor mijn Nederlandse Sync. ondertitels ---- en meer ----\n------- http://www.Film-Test.nl ---- Over Films en meer -------\n---------------------------------------------------------------\n\nGeneral:\n\nComplete name                    : CocktailCocktail.avi\nFormat                           : AVI\nFormat/Info                      : Audio Video Interleave\nFile size                        : 1.62 GiB\nDuration                         : 1h 39mn\nOverall bit rate                 : 2 340 Kbps\n\nVideo:\n\nFormat                           : MPEG-4 Visual\nFormat profile                   : Simple@L3\nFormat settings, BVOP            : No\nFormat settings, QPel            : No\nFormat settings, GMC             : No warppoints\nFormat settings, Matrix          : Default (H.263)\nCodec ID                         : XVID\nCodec ID/Hint                    : XviD\nDuration                         : 1h 39mn\nBit rate                         : 1 945 Kbps\nWidth                            : 652 pixels\nHeight                           : 352 pixels\nDisplay aspect ratio             : 1.852\nFrame rate                       : 25.000 fps\nColor space                      : YUV\nChroma subsampling               : 4:2:0\nBit depth                        : 8 bits\nScan type                        : Progressive\nCompression mode                 : Lossy\nBits/(Pixel*Frame)               : 0.339\nStream size                      : 1.35 GiB (83%)\nWriting library                  : XviD 1.1.2 (UTC 2006-11-01)\n\nAudio:\n\nFormat                           : AC-3\nFormat/Info                      : Audio Coding 3\nMode extension                   : CM (complete main)\nCodec ID                         : 2000\nDuration                         : 1h 39mn\nBit rate mode                    : Constant\nBit rate                         : 384 Kbps\nChannel(s)                       : 6 channels\nChannel positions                : Front: L C R, Side: L R, LFE\nSampling rate                    : 48.0 KHz\nBit depth                        : 16 bits\nCompression mode                 : Lossy\nStream size                      : 273 MiB (16%)\nAlignment                        : Aligned on interleaves\nInterleave, duration             : 32 ms (0.80 video frame)\nInterleave, preload duration     : 288 ms","torrent":{"xt":"urn:btih:d7b5414658766718515c8476b5f2f43656dced6a","amp;dn":"Cocktail+1988+DVDrip+English+Klam","amp;tr":["udp%3A%2F%2Ftracker.openbittorrent.com%3A80","udp%3A%2F%2Fopen.demonii.com%3A1337","udp%3A%2F%2Ftracker.coppersurfer.tk%3A6969","udp%3A%2F%2Fexodus.desync.com%3A6969"],"infoHash":"d7b5414658766718515c8476b5f2f43656dced6a","infoHashBuffer":{"type":"Buffer","data":[215,181,65,70,88,118,103,24,81,92,132,118,181,242,244,54,86,220,237,106]},"announce":[],"urlList":[]}}